<svg width="14" height="14" viewBox="0 0 14 14" fill="none" xmlns="http://www.w3.org/2000/svg">
<path d="M12.8337 5.0167C12.827 4.95715 12.8139 4.89849 12.7948 4.8417V4.78337C12.7643 4.71632 12.7227 4.65495 12.6716 4.60189L8.78273 0.712999C8.72967 0.661939 8.6683 0.620293 8.60125 0.589851C8.58192 0.586918 8.56225 0.586918 8.54292 0.589851C8.47694 0.552402 8.40428 0.528185 8.32903 0.518555H5.70403C5.18833 0.518555 4.69375 0.723415 4.3291 1.08807C3.96445 1.45272 3.75958 1.9473 3.75958 2.463V3.11115H3.11144C2.59574 3.11115 2.10116 3.31601 1.73651 3.68066C1.37185 4.04532 1.16699 4.53989 1.16699 5.05559V11.5371C1.16699 12.0528 1.37185 12.5473 1.73651 12.912C2.10116 13.2767 2.59574 13.4815 3.11144 13.4815H8.29662C8.81232 13.4815 9.3069 13.2767 9.67155 12.912C10.0362 12.5473 10.2411 12.0528 10.2411 11.5371V10.8889H10.8892C11.4049 10.8889 11.8995 10.6841 12.2641 10.3194C12.6288 9.95476 12.8337 9.46018 12.8337 8.94448V5.0167ZM8.94477 2.72874L10.6235 4.40744H9.59292C9.42102 4.40744 9.25616 4.33916 9.13461 4.21761C9.01306 4.09605 8.94477 3.9312 8.94477 3.7593V2.72874ZM8.94477 11.5371C8.94477 11.709 8.87648 11.8738 8.75493 11.9954C8.63338 12.1169 8.46852 12.1852 8.29662 12.1852H3.11144C2.93954 12.1852 2.77468 12.1169 2.65313 11.9954C2.53158 11.8738 2.46329 11.709 2.46329 11.5371V5.05559C2.46329 4.88369 2.53158 4.71883 2.65313 4.59728C2.77468 4.47573 2.93954 4.40744 3.11144 4.40744H3.75958V8.94448C3.75958 9.46018 3.96445 9.95476 4.3291 10.3194C4.69375 10.6841 5.18833 10.8889 5.70403 10.8889H8.94477V11.5371ZM11.5374 8.94448C11.5374 9.11638 11.4691 9.28124 11.3475 9.40279C11.226 9.52434 11.0611 9.59263 10.8892 9.59263H5.70403C5.53213 9.59263 5.36727 9.52434 5.24572 9.40279C5.12417 9.28124 5.05588 9.11638 5.05588 8.94448V2.463C5.05588 2.2911 5.12417 2.12624 5.24572 2.00469C5.36727 1.88314 5.53213 1.81485 5.70403 1.81485H7.64847V3.7593C7.64847 4.27499 7.85333 4.76957 8.21799 5.13423C8.58264 5.49888 9.07722 5.70374 9.59292 5.70374H11.5374V8.94448Z" fill="#C5A47E"/>
</svg>
