<svg width="14" height="14" viewBox="0 0 14 14" fill="none" xmlns="http://www.w3.org/2000/svg">
<path d="M5.39583 4.52116L12.9792 12.1045M5.39583 9.47949L12.9792 1.89616M1.3125 3.35449C1.3125 3.93465 1.54297 4.49105 1.9532 4.90129C2.36344 5.31152 2.91984 5.54199 3.5 5.54199C4.08016 5.54199 4.63656 5.31152 5.0468 4.90129C5.45703 4.49105 5.6875 3.93465 5.6875 3.35449C5.6875 2.77433 5.45703 2.21793 5.0468 1.8077C4.63656 1.39746 4.08016 1.16699 3.5 1.16699C2.91984 1.16699 2.36344 1.39746 1.9532 1.8077C1.54297 2.21793 1.3125 2.77433 1.3125 3.35449ZM1.3125 10.6462C1.3125 11.2263 1.54297 11.7827 1.9532 12.193C2.36344 12.6032 2.91984 12.8337 3.5 12.8337C4.08016 12.8337 4.63656 12.6032 5.0468 12.193C5.45703 11.7827 5.6875 11.2263 5.6875 10.6462C5.6875 10.066 5.45703 9.5096 5.0468 9.09936C4.63656 8.68913 4.08016 8.45866 3.5 8.45866C2.91984 8.45866 2.36344 8.68913 1.9532 9.09936C1.54297 9.5096 1.3125 10.066 1.3125 10.6462Z" stroke="#C5A47E" stroke-width="1.5" stroke-linecap="round" stroke-linejoin="round"/>
</svg>
