<svg width="14" height="14" viewBox="0 0 14 14" fill="none" xmlns="http://www.w3.org/2000/svg">
<path d="M9.76311 1.61184V2.76316H11.8355C12.0187 2.76316 12.1944 2.83594 12.3239 2.96549C12.4535 3.09503 12.5263 3.27074 12.5263 3.45395C12.5263 3.63716 12.4535 3.81286 12.3239 3.94241C12.1944 4.07196 12.0187 4.14474 11.8355 4.14474H2.16442C1.98121 4.14474 1.80551 4.07196 1.67596 3.94241C1.54641 3.81286 1.47363 3.63716 1.47363 3.45395C1.47363 3.27074 1.54641 3.09503 1.67596 2.96549C1.80551 2.83594 1.98121 2.76316 2.16442 2.76316H4.23679V1.61184C4.23679 0.722105 4.9589 0 5.84863 0H8.15126C9.041 0 9.76311 0.722105 9.76311 1.61184ZM3.77258 6.14803L4.38048 12.227C4.38619 12.2838 4.41282 12.3365 4.4552 12.3748C4.49759 12.4131 4.55269 12.4343 4.60982 12.4342H9.39008C9.4472 12.4343 9.50231 12.4131 9.54469 12.3748C9.58708 12.3365 9.61371 12.2838 9.61942 12.227L10.2273 6.14803C10.2502 5.9696 10.3417 5.80711 10.4825 5.69513C10.6233 5.58314 10.8022 5.53049 10.9812 5.54836C11.1602 5.56624 11.3251 5.65323 11.441 5.79085C11.5568 5.92846 11.6144 6.10584 11.6015 6.28526L10.9936 12.3642C10.9539 12.7619 10.7678 13.1307 10.4715 13.3989C10.1752 13.6671 9.78977 13.8157 9.39008 13.8158H4.60982C4.21027 13.8157 3.82499 13.6673 3.52869 13.3993C3.2324 13.1312 3.04622 12.7627 3.00626 12.3651L2.39837 6.28618C2.38683 6.19472 2.39372 6.10188 2.41862 6.01312C2.44353 5.92437 2.48595 5.84149 2.54338 5.76938C2.60081 5.69727 2.67209 5.63739 2.75302 5.59326C2.83396 5.54912 2.92291 5.52164 3.01463 5.51242C3.10635 5.5032 3.19899 5.51243 3.28709 5.53956C3.37519 5.5667 3.45697 5.6112 3.5276 5.67043C3.59824 5.72967 3.6563 5.80244 3.69837 5.88446C3.74045 5.96649 3.76568 6.0561 3.77258 6.14803ZM5.61837 1.61184V2.76316H8.38153V1.61184C8.38153 1.55077 8.35727 1.4922 8.31409 1.44902C8.2709 1.40584 8.21233 1.38158 8.15126 1.38158H5.84863C5.78756 1.38158 5.72899 1.40584 5.68581 1.44902C5.64263 1.4922 5.61837 1.55077 5.61837 1.61184Z" fill="#C5A47E"/>
</svg>
