<svg width="14" height="14" viewBox="0 0 14 14" fill="none" xmlns="http://www.w3.org/2000/svg">
<path d="M2.86016 1.3125H1.75C0.784766 1.3125 0 2.09727 0 3.0625V10.5C0 11.4652 0.784766 12.25 1.75 12.25H4.375V10.9375H1.75C1.50937 10.9375 1.3125 10.7406 1.3125 10.5V3.0625C1.3125 2.82188 1.50937 2.625 1.75 2.625H2.1875C2.1875 3.10898 2.57852 3.5 3.0625 3.5H5.04219C5.52344 2.96406 6.22344 2.625 7 2.625H8.69531C8.50117 1.87031 7.81484 1.3125 7 1.3125H5.88984C5.78594 0.571484 5.14609 0 4.375 0C3.60391 0 2.96406 0.571484 2.86016 1.3125ZM3.9375 1.53125C3.9375 1.41522 3.98359 1.30394 4.06564 1.22189C4.14769 1.13984 4.25897 1.09375 4.375 1.09375C4.49103 1.09375 4.60231 1.13984 4.68436 1.22189C4.76641 1.30394 4.8125 1.41522 4.8125 1.53125C4.8125 1.64728 4.76641 1.75856 4.68436 1.84061C4.60231 1.92266 4.49103 1.96875 4.375 1.96875C4.25897 1.96875 4.14769 1.92266 4.06564 1.84061C3.98359 1.75856 3.9375 1.64728 3.9375 1.53125ZM12.25 12.6875H7C6.75938 12.6875 6.5625 12.4906 6.5625 12.25V5.25C6.5625 5.00938 6.75938 4.8125 7 4.8125H10.8309L12.6875 6.66914V12.25C12.6875 12.4906 12.4906 12.6875 12.25 12.6875ZM7 14H12.25C13.2152 14 14 13.2152 14 12.25V6.66914C14 6.32187 13.8605 5.98828 13.6145 5.74219L11.7578 3.88555C11.5117 3.63945 11.1781 3.5 10.8309 3.5H7C6.03477 3.5 5.25 4.28477 5.25 5.25V12.25C5.25 13.2152 6.03477 14 7 14Z" fill="#C5A47E"/>
</svg>
