<svg width="14" height="14" viewBox="0 0 14 14" fill="none" xmlns="http://www.w3.org/2000/svg">
<path d="M4.40705 5.70403H3.11075C2.76695 5.70403 2.43723 5.8406 2.19413 6.08371C1.95103 6.32681 1.81445 6.65653 1.81445 7.00033V11.5374C1.81445 11.8812 1.95103 12.2109 2.19413 12.454C2.43723 12.6971 2.76695 12.8337 3.11075 12.8337H10.8885C11.2323 12.8337 11.562 12.6971 11.8051 12.454C12.0482 12.2109 12.1848 11.8812 12.1848 11.5374V7.00033C12.1848 6.65653 12.0482 6.32681 11.8051 6.08371C11.562 5.8406 11.2323 5.70403 10.8885 5.70403H9.59223M4.40705 5.70403V3.75958C4.40705 3.07199 4.68019 2.41255 5.1664 1.92634C5.6526 1.44014 6.31204 1.16699 6.99964 1.16699C7.68724 1.16699 8.34667 1.44014 8.83288 1.92634C9.31908 2.41255 9.59223 3.07199 9.59223 3.75958V5.70403M4.40705 5.70403H9.59223M6.99964 8.29662V10.2411" stroke="#C5A47E" stroke-width="2" stroke-linecap="round" stroke-linejoin="round"/>
</svg>
