<svg width="12" height="12" viewBox="0 0 12 12" fill="none" xmlns="http://www.w3.org/2000/svg">
<path d="M5.99961 4.8001C6.27539 4.8001 6.54846 4.74578 6.80324 4.64025C7.05803 4.53471 7.28953 4.38002 7.48453 4.18502C7.67954 3.99002 7.83422 3.75852 7.93976 3.50373C8.04529 3.24895 8.09961 2.97587 8.09961 2.7001C8.09961 2.42432 8.04529 2.15125 7.93976 1.89646C7.83422 1.64168 7.67954 1.41018 7.48453 1.21517C7.28953 1.02017 7.05803 0.865485 6.80324 0.759951C6.54846 0.654416 6.27539 0.600098 5.99961 0.600098C5.44265 0.600098 4.90851 0.821347 4.51469 1.21517C4.12086 1.609 3.89961 2.14314 3.89961 2.7001C3.89961 3.25705 4.12086 3.7912 4.51469 4.18502C4.90851 4.57885 5.44265 4.8001 5.99961 4.8001ZM0.599609 11.0401V11.4001H11.3996V11.0401C11.3996 9.6961 11.3996 9.0241 11.138 8.5105C10.9079 8.05893 10.5408 7.69179 10.0892 7.4617C9.57561 7.2001 8.90361 7.2001 7.55961 7.2001H4.43961C3.09561 7.2001 2.42361 7.2001 1.91001 7.4617C1.45844 7.69179 1.0913 8.05893 0.861209 8.5105C0.599609 9.0241 0.599609 9.6961 0.599609 11.0401Z" stroke="#C5A47E" stroke-linecap="round" stroke-linejoin="round"/>
</svg>
