<svg width="17" height="21" viewBox="0 0 17 21" fill="none" xmlns="http://www.w3.org/2000/svg">
<path d="M2.80078 21C2.25078 21 1.78011 20.8043 1.38878 20.413C0.997448 20.0217 0.801448 19.5507 0.800781 19V9C0.800781 8.45 0.996781 7.97933 1.38878 7.588C1.78078 7.19667 2.25145 7.00067 2.80078 7H3.80078V5C3.80078 3.61667 4.28845 2.43767 5.26378 1.463C6.23911 0.488334 7.41811 0.000667349 8.80078 6.82594e-07C10.1834 -0.000665984 11.3628 0.487001 12.3388 1.463C13.3148 2.439 13.8021 3.618 13.8008 5V7H14.8008C15.3508 7 15.8218 7.196 16.2138 7.588C16.6058 7.98 16.8014 8.45067 16.8008 9V19C16.8008 19.55 16.6051 20.021 16.2138 20.413C15.8224 20.805 15.3514 21.0007 14.8008 21H2.80078ZM2.80078 19H14.8008V9H2.80078V19ZM8.80078 16C9.35078 16 9.82178 15.8043 10.2138 15.413C10.6058 15.0217 10.8014 14.5507 10.8008 14C10.8001 13.4493 10.6044 12.9787 10.2138 12.588C9.82311 12.1973 9.35211 12.0013 8.80078 12C8.24945 11.9987 7.77878 12.1947 7.38878 12.588C6.99878 12.9813 6.80278 13.452 6.80078 14C6.79878 14.548 6.99478 15.019 7.38878 15.413C7.78278 15.807 8.25345 16.0027 8.80078 16ZM5.80078 7H11.8008V5C11.8008 4.16667 11.5091 3.45833 10.9258 2.875C10.3424 2.29167 9.63411 2 8.80078 2C7.96745 2 7.25911 2.29167 6.67578 2.875C6.09245 3.45833 5.80078 4.16667 5.80078 5V7Z" fill="#C5A47E"/>
</svg>
