<svg width="12" height="12" viewBox="0 0 12 12" fill="none" xmlns="http://www.w3.org/2000/svg">
<path d="M9.1 1.2V1.7H9.6H10.2C10.918 1.7 11.5 2.28203 11.5 3V10.2C11.5 10.918 10.918 11.5 10.2 11.5H1.8C1.08203 11.5 0.5 10.918 0.5 10.2V3C0.5 2.28203 1.08203 1.7 1.8 1.7H2.4H2.9V1.2V0.6C2.9 0.544771 2.94477 0.5 3 0.5C3.05523 0.5 3.1 0.544772 3.1 0.6V1.2V1.7H3.6H8.4H8.9V1.2V0.6C8.9 0.544771 8.94477 0.5 9 0.5C9.05523 0.5 9.1 0.544772 9.1 0.6V1.2ZM1.2 5.5H0.7V6V10.2C0.7 10.8075 1.19249 11.3 1.8 11.3H10.2C10.8075 11.3 11.3 10.8075 11.3 10.2V6V5.5H10.8H1.2ZM0.7 4.8V5.3H1.2H10.8H11.3V4.8V3C11.3 2.39249 10.8075 1.9 10.2 1.9H9.6H9.1V2.4V3C9.1 3.05523 9.05523 3.1 9 3.1C8.94477 3.1 8.9 3.05523 8.9 3V2.4V1.9H8.4H3.6H3.1V2.4V3C3.1 3.05523 3.05523 3.1 3 3.1C2.94477 3.1 2.9 3.05523 2.9 3V2.4V1.9H2.4H1.8C1.19249 1.9 0.7 2.39249 0.7 3V4.8Z" fill="#34322E" stroke="#34322E"/>
</svg>
