<svg width="11" height="11" viewBox="0 0 11 11" fill="none" xmlns="http://www.w3.org/2000/svg">
<path fill-rule="evenodd" clip-rule="evenodd" d="M6.63799 7.52181C5.79193 8.14509 4.7416 8.42566 3.69744 8.30732C2.65327 8.18898 1.69238 7.68046 1.00727 6.88364C0.322156 6.08682 -0.0365717 5.06056 0.00295046 4.01045C0.0424726 2.96034 0.477325 1.96394 1.22039 1.22088C1.96346 0.477814 2.95985 0.0429609 4.00996 0.00343875C5.06007 -0.0360834 6.08634 0.322644 6.88315 1.00775C7.67997 1.69286 8.18849 2.65376 8.30683 3.69792C8.42517 4.74209 8.1446 5.79242 7.52132 6.63848L9.81715 8.93348C9.87856 8.9907 9.92781 9.0597 9.96197 9.13636C9.99613 9.21303 10.0145 9.29579 10.016 9.37971C10.0175 9.46363 10.002 9.54698 9.97059 9.62481C9.93916 9.70263 9.89237 9.77333 9.83302 9.83267C9.77367 9.89202 9.70298 9.93881 9.62515 9.97025C9.54733 10.0017 9.46397 10.0171 9.38005 10.0156C9.29613 10.0142 9.21337 9.99579 9.13671 9.96163C9.06004 9.92747 8.99104 9.87822 8.93382 9.81681L6.63799 7.52181ZM7.08382 4.16681C7.08382 4.94036 6.77653 5.68222 6.22955 6.22921C5.68257 6.77619 4.9407 7.08348 4.16715 7.08348C3.39361 7.08348 2.65174 6.77619 2.10476 6.22921C1.55778 5.68222 1.25049 4.94036 1.25049 4.16681C1.25049 3.39326 1.55778 2.6514 2.10476 2.10442C2.65174 1.55743 3.39361 1.25014 4.16715 1.25014C4.9407 1.25014 5.68257 1.55743 6.22955 2.10442C6.77653 2.6514 7.08382 3.39326 7.08382 4.16681Z" fill="#C5A47E"/>
</svg>
