<svg width="14" height="13" viewBox="0 0 14 13" fill="none" xmlns="http://www.w3.org/2000/svg">
<path d="M14 13H1.7465C1.44375 13 1.25767 12.8214 1.25942 12.5594C1.26 12.5849 1.26058 12.4692 1.26117 12.2772C1.34361 12.2268 1.42664 12.1766 1.51025 12.1266L1.55575 12.0992L1.59658 12.0639L1.60533 12.0559L1.67942 12.0084L2.43425 11.5184H3.09575C5.04992 11.5184 9.989 11.5184 12.7487 11.5226C12.8415 11.5226 13.1168 11.5226 13.3333 11.2965C13.5497 11.0698 13.5491 10.7767 13.5491 10.6804C13.5444 9.42667 13.5485 8.17604 13.552 6.92602C13.5567 5.46939 13.5613 3.96399 13.552 2.47811V2.43971L13.9078 2.43544C14.0064 2.43361 13.9913 2.55551 13.9913 2.61585C13.9994 6.07764 13.9796 9.53943 14 13ZM8.35683 4.66062C8.36033 4.48936 8.36033 4.31932 8.36033 4.13708C8.35508 3.83235 8.12992 3.49409 7.826 3.49409C7.57225 3.49409 7.28992 3.49775 6.99067 3.49775V5.33225H7.826C8.12933 5.33225 8.351 4.97632 8.35683 4.66062ZM2.26742 10.9089L2.24758 0.0170652L2.25167 0.00182842L2.26683 0H12.3661C12.6636 0.141397 12.9162 0.341303 12.9687 0.706985C12.9821 1.34815 12.9687 1.86254 12.9687 2.44641C12.9692 2.46043 12.9675 2.46835 12.9687 2.48237C12.9862 5.21828 12.9558 7.94505 12.9657 10.6816C12.9657 10.8553 12.9237 10.9132 12.7499 10.9132C9.25575 10.9083 2.26742 10.9089 2.26742 10.9089ZM5.54808 8.4887H6.94517L6.97842 8.45762V6.32447C7.16275 6.32508 7.31092 6.32142 7.4375 6.32142C7.48125 6.32142 7.6405 6.36714 7.69942 6.49573C7.90942 6.9571 8.10308 7.42883 8.35567 7.86704C8.69575 8.4564 9.34967 8.60084 9.79592 8.60084C10.1039 8.60084 10.1039 8.58622 10.1039 8.45152C10.1039 8.19372 10.1004 7.88167 10.1004 7.61411C9.86533 7.59034 9.67225 7.51477 9.5585 7.28439C9.34733 6.85471 9.12683 6.43052 8.90575 5.99597C9.05042 5.95209 9.03292 5.96123 9.08192 5.9399C9.583 5.72232 9.74633 5.36029 9.7895 4.8977C9.81867 4.59114 9.82392 4.20047 9.80408 4.04749C9.73875 3.5398 9.58358 3.16132 9.19975 2.87C8.74883 2.52747 8.22092 2.46957 7.69358 2.45129C6.9785 2.43156 6.26302 2.434 5.54808 2.4586V8.4887ZM2.24758 0.0170652C0.951417 0.795359 0.571667 1.06779 0.130083 1.32743C0.0145833 1.39386 0 1.56024 0 1.68518L0.0116667 12.3204C0.347083 12.1029 1.93258 11.1259 2.26742 10.9089L2.24758 0.0170652Z" fill="#C5A47E"/>
</svg>
